<mxfile host="app.diagrams.net" modified="2022-01-30T21:52:05.737Z" agent="5.0 (Macintosh)" etag="ZRUGdRs9rT8pqlZu80vL" version="16.2.4" type="github">
  <diagram name="Page-1" id="58cdce13-f638-feb5-8d6f-7d28b1aa9fa0">
    <mxGraphModel dx="1426" dy="767" grid="1" gridSize="10" guides="1" tooltips="1" connect="1" arrows="1" fold="1" page="1" pageScale="1" pageWidth="1169" pageHeight="827" background="none" math="0" shadow="0">
      <root>
        <mxCell id="0" />
        <mxCell id="1" parent="0" />
        <mxCell id="TvTBjt7HVJbZdoVM67S8-25" style="edgeStyle=orthogonalEdgeStyle;rounded=0;orthogonalLoop=1;jettySize=auto;html=1;" edge="1" parent="1" source="RftWT_6a3TEJ_z7IRj75-2" target="TvTBjt7HVJbZdoVM67S8-1">
          <mxGeometry relative="1" as="geometry" />
        </mxCell>
        <mxCell id="TvTBjt7HVJbZdoVM67S8-26" style="edgeStyle=orthogonalEdgeStyle;rounded=0;orthogonalLoop=1;jettySize=auto;html=1;" edge="1" parent="1" source="RftWT_6a3TEJ_z7IRj75-2" target="RftWT_6a3TEJ_z7IRj75-10">
          <mxGeometry relative="1" as="geometry" />
        </mxCell>
        <mxCell id="RftWT_6a3TEJ_z7IRj75-2" value="&lt;div&gt;&lt;br&gt;&lt;/div&gt;&lt;div&gt;entry/Zeit festlegen&lt;/div&gt;&lt;div&gt;entry/Kostenstelle(n) angeben&lt;br&gt;&lt;/div&gt;" style="rounded=1;whiteSpace=wrap;html=1;" parent="1" vertex="1">
          <mxGeometry x="406.25" y="65.5" width="163" height="82" as="geometry" />
        </mxCell>
        <mxCell id="RftWT_6a3TEJ_z7IRj75-3" value="" style="endArrow=none;html=1;rounded=0;exitX=0;exitY=0.25;exitDx=0;exitDy=0;entryX=1;entryY=0.25;entryDx=0;entryDy=0;" parent="1" source="RftWT_6a3TEJ_z7IRj75-2" target="RftWT_6a3TEJ_z7IRj75-2" edge="1">
          <mxGeometry width="50" height="50" relative="1" as="geometry">
            <mxPoint x="632.75" y="313.5" as="sourcePoint" />
            <mxPoint x="682.75" y="263.5" as="targetPoint" />
          </mxGeometry>
        </mxCell>
        <mxCell id="RftWT_6a3TEJ_z7IRj75-4" value="erzeugt" style="text;html=1;strokeColor=none;fillColor=none;align=center;verticalAlign=middle;whiteSpace=wrap;rounded=0;" parent="1" vertex="1">
          <mxGeometry x="413" y="61.5" width="149.5" height="30" as="geometry" />
        </mxCell>
        <mxCell id="RftWT_6a3TEJ_z7IRj75-5" value="&lt;span style=&quot;left: 148.105px ; top: 374.778px ; font-size: 18.3px ; font-family: sans-serif ; transform: scalex(1.00494)&quot; dir=&quot;ltr&quot;&gt;E) Lebenszyklus von Fahrzeugreservierun&lt;/span&gt;&lt;span style=&quot;left: 148.1px ; top: 395.878px ; font-size: 18.3px ; font-family: sans-serif ; transform: scalex(1.00226)&quot; dir=&quot;ltr&quot;&gt;gen &lt;/span&gt;" style="text;html=1;align=center;verticalAlign=middle;resizable=0;points=[];autosize=1;strokeColor=none;fillColor=none;" parent="1" vertex="1">
          <mxGeometry x="10" y="10" width="390" height="20" as="geometry" />
        </mxCell>
        <mxCell id="RftWT_6a3TEJ_z7IRj75-9" style="edgeStyle=orthogonalEdgeStyle;rounded=0;orthogonalLoop=1;jettySize=auto;html=1;entryX=0;entryY=0.5;entryDx=0;entryDy=0;" parent="1" source="RftWT_6a3TEJ_z7IRj75-6" target="RftWT_6a3TEJ_z7IRj75-2" edge="1">
          <mxGeometry relative="1" as="geometry" />
        </mxCell>
        <mxCell id="RftWT_6a3TEJ_z7IRj75-6" value="" style="ellipse;html=1;shape=startState;fillColor=#000000;strokeColor=default;rounded=1;shadow=0;comic=0;labelBackgroundColor=none;fontFamily=Verdana;fontSize=12;fontColor=#000000;align=center;direction=south;" parent="1" vertex="1">
          <mxGeometry x="316.25" y="91.5" width="30" height="30" as="geometry" />
        </mxCell>
        <mxCell id="TvTBjt7HVJbZdoVM67S8-27" style="edgeStyle=orthogonalEdgeStyle;rounded=0;orthogonalLoop=1;jettySize=auto;html=1;" edge="1" parent="1" source="RftWT_6a3TEJ_z7IRj75-10" target="TvTBjt7HVJbZdoVM67S8-1">
          <mxGeometry relative="1" as="geometry">
            <Array as="points">
              <mxPoint x="760" y="220" />
              <mxPoint x="488" y="220" />
            </Array>
          </mxGeometry>
        </mxCell>
        <mxCell id="TvTBjt7HVJbZdoVM67S8-28" style="edgeStyle=orthogonalEdgeStyle;rounded=0;orthogonalLoop=1;jettySize=auto;html=1;" edge="1" parent="1" source="RftWT_6a3TEJ_z7IRj75-10" target="TvTBjt7HVJbZdoVM67S8-7">
          <mxGeometry relative="1" as="geometry">
            <mxPoint x="950" y="510" as="targetPoint" />
            <Array as="points">
              <mxPoint x="840" y="420" />
              <mxPoint x="840" y="420" />
            </Array>
          </mxGeometry>
        </mxCell>
        <mxCell id="RftWT_6a3TEJ_z7IRj75-10" value="&lt;div&gt;&lt;br&gt;&lt;/div&gt;&lt;div&gt;do/suchen von freien Fahrzeugen&lt;br&gt;&lt;/div&gt;" style="rounded=1;whiteSpace=wrap;html=1;" parent="1" vertex="1">
          <mxGeometry x="720" y="65.5" width="163" height="82" as="geometry" />
        </mxCell>
        <mxCell id="RftWT_6a3TEJ_z7IRj75-11" value="" style="endArrow=none;html=1;rounded=0;exitX=0;exitY=0.25;exitDx=0;exitDy=0;entryX=1;entryY=0.25;entryDx=0;entryDy=0;" parent="1" edge="1">
          <mxGeometry width="50" height="50" relative="1" as="geometry">
            <mxPoint x="720" y="90" as="sourcePoint" />
            <mxPoint x="883" y="90" as="targetPoint" />
          </mxGeometry>
        </mxCell>
        <mxCell id="RftWT_6a3TEJ_z7IRj75-12" value="zurückgestellt" style="text;html=1;strokeColor=none;fillColor=none;align=center;verticalAlign=middle;whiteSpace=wrap;rounded=0;" parent="1" vertex="1">
          <mxGeometry x="726.75" y="65.5" width="149.5" height="30" as="geometry" />
        </mxCell>
        <mxCell id="RftWT_6a3TEJ_z7IRj75-21" value="Verfügbarkeit überprüfen [Auto verfügbar]" style="text;html=1;strokeColor=none;fillColor=none;align=center;verticalAlign=middle;whiteSpace=wrap;rounded=0;" parent="1" vertex="1">
          <mxGeometry x="336.25" y="160" width="150" height="53" as="geometry" />
        </mxCell>
        <mxCell id="RftWT_6a3TEJ_z7IRj75-24" value="Verfügbarkeit überprüfen [Auto verfügbar]" style="text;html=1;strokeColor=none;fillColor=none;align=center;verticalAlign=middle;whiteSpace=wrap;rounded=0;" parent="1" vertex="1">
          <mxGeometry x="610" y="160" width="150" height="53" as="geometry" />
        </mxCell>
        <mxCell id="RftWT_6a3TEJ_z7IRj75-49" style="edgeStyle=orthogonalEdgeStyle;rounded=0;orthogonalLoop=1;jettySize=auto;html=1;" parent="1" target="RftWT_6a3TEJ_z7IRj75-43" edge="1">
          <mxGeometry relative="1" as="geometry">
            <mxPoint x="487.75" y="998.5" as="sourcePoint" />
          </mxGeometry>
        </mxCell>
        <mxCell id="RftWT_6a3TEJ_z7IRj75-41" value="Kostenstelle fertig&lt;br&gt;[Antrag Abgelehntt]" style="text;html=1;strokeColor=none;fillColor=none;align=center;verticalAlign=middle;whiteSpace=wrap;rounded=0;" parent="1" vertex="1">
          <mxGeometry x="590" y="310" width="150" height="53" as="geometry" />
        </mxCell>
        <mxCell id="RftWT_6a3TEJ_z7IRj75-43" value="" style="ellipse;html=1;shape=endState;fillColor=#000000;strokeColor=#030000;rounded=1;shadow=0;comic=0;labelBackgroundColor=none;fontFamily=Verdana;fontSize=12;fontColor=#000000;align=center;" parent="1" vertex="1">
          <mxGeometry x="472.75" y="1050" width="30" height="30" as="geometry" />
        </mxCell>
        <mxCell id="RftWT_6a3TEJ_z7IRj75-45" value="&lt;div&gt;Reiseantritt&lt;/div&gt;" style="text;html=1;strokeColor=none;fillColor=none;align=center;verticalAlign=middle;whiteSpace=wrap;rounded=0;" parent="1" vertex="1">
          <mxGeometry x="370" y="496" width="150" height="53" as="geometry" />
        </mxCell>
        <mxCell id="RftWT_6a3TEJ_z7IRj75-53" value="&lt;div&gt;Reiseabbruch&lt;/div&gt;" style="text;html=1;strokeColor=none;fillColor=none;align=center;verticalAlign=middle;whiteSpace=wrap;rounded=0;" parent="1" vertex="1">
          <mxGeometry x="810" y="180" width="150" height="53" as="geometry" />
        </mxCell>
        <mxCell id="3UKNWpvNJweof73UtUun-1" value="Verfügbarkeit überprüfen [kein Auto verfügbar]" style="text;html=1;strokeColor=none;fillColor=none;align=center;verticalAlign=middle;whiteSpace=wrap;rounded=0;" parent="1" vertex="1">
          <mxGeometry x="569.25" y="50" width="150" height="53" as="geometry" />
        </mxCell>
        <mxCell id="TvTBjt7HVJbZdoVM67S8-23" style="edgeStyle=orthogonalEdgeStyle;rounded=0;orthogonalLoop=1;jettySize=auto;html=1;exitX=1;exitY=0.25;exitDx=0;exitDy=0;" edge="1" parent="1" source="TvTBjt7HVJbZdoVM67S8-1" target="TvTBjt7HVJbZdoVM67S8-7">
          <mxGeometry relative="1" as="geometry">
            <Array as="points">
              <mxPoint x="569" y="280" />
              <mxPoint x="840" y="280" />
            </Array>
          </mxGeometry>
        </mxCell>
        <mxCell id="TvTBjt7HVJbZdoVM67S8-35" style="edgeStyle=orthogonalEdgeStyle;rounded=0;orthogonalLoop=1;jettySize=auto;html=1;" edge="1" parent="1" source="TvTBjt7HVJbZdoVM67S8-1" target="TvTBjt7HVJbZdoVM67S8-32">
          <mxGeometry relative="1" as="geometry" />
        </mxCell>
        <mxCell id="TvTBjt7HVJbZdoVM67S8-1" value="&lt;div&gt;&lt;br&gt;&lt;/div&gt;&lt;div&gt;entry/Kostenstelle benachrichtigen&lt;br&gt;&lt;/div&gt;" style="rounded=1;whiteSpace=wrap;html=1;" vertex="1" parent="1">
          <mxGeometry x="406.25" y="255.5" width="163" height="82" as="geometry" />
        </mxCell>
        <mxCell id="TvTBjt7HVJbZdoVM67S8-2" value="" style="endArrow=none;html=1;rounded=0;exitX=0;exitY=0.25;exitDx=0;exitDy=0;entryX=1;entryY=0.25;entryDx=0;entryDy=0;" edge="1" parent="1" source="TvTBjt7HVJbZdoVM67S8-1" target="TvTBjt7HVJbZdoVM67S8-1">
          <mxGeometry width="50" height="50" relative="1" as="geometry">
            <mxPoint x="632.75" y="503.5" as="sourcePoint" />
            <mxPoint x="682.75" y="453.5" as="targetPoint" />
          </mxGeometry>
        </mxCell>
        <mxCell id="TvTBjt7HVJbZdoVM67S8-3" value="angelegt" style="text;html=1;strokeColor=none;fillColor=none;align=center;verticalAlign=middle;whiteSpace=wrap;rounded=0;" vertex="1" parent="1">
          <mxGeometry x="413" y="251.5" width="149.5" height="30" as="geometry" />
        </mxCell>
        <mxCell id="TvTBjt7HVJbZdoVM67S8-21" style="edgeStyle=orthogonalEdgeStyle;rounded=0;orthogonalLoop=1;jettySize=auto;html=1;" edge="1" parent="1" source="TvTBjt7HVJbZdoVM67S8-4" target="TvTBjt7HVJbZdoVM67S8-10">
          <mxGeometry relative="1" as="geometry" />
        </mxCell>
        <mxCell id="TvTBjt7HVJbZdoVM67S8-4" value="entry/Fahrzeug aushändigen" style="rounded=1;whiteSpace=wrap;html=1;" vertex="1" parent="1">
          <mxGeometry x="406.25" y="554" width="163" height="82" as="geometry" />
        </mxCell>
        <mxCell id="TvTBjt7HVJbZdoVM67S8-5" value="" style="endArrow=none;html=1;rounded=0;exitX=0;exitY=0.25;exitDx=0;exitDy=0;entryX=1;entryY=0.25;entryDx=0;entryDy=0;" edge="1" parent="1" source="TvTBjt7HVJbZdoVM67S8-4" target="TvTBjt7HVJbZdoVM67S8-4">
          <mxGeometry width="50" height="50" relative="1" as="geometry">
            <mxPoint x="632.75" y="802" as="sourcePoint" />
            <mxPoint x="682.75" y="752" as="targetPoint" />
          </mxGeometry>
        </mxCell>
        <mxCell id="TvTBjt7HVJbZdoVM67S8-6" value="angetreten" style="text;html=1;strokeColor=none;fillColor=none;align=center;verticalAlign=middle;whiteSpace=wrap;rounded=0;" vertex="1" parent="1">
          <mxGeometry x="413" y="550" width="149.5" height="30" as="geometry" />
        </mxCell>
        <mxCell id="TvTBjt7HVJbZdoVM67S8-24" style="edgeStyle=orthogonalEdgeStyle;rounded=0;orthogonalLoop=1;jettySize=auto;html=1;entryX=1;entryY=0.5;entryDx=0;entryDy=0;exitX=0.5;exitY=1;exitDx=0;exitDy=0;" edge="1" parent="1" source="TvTBjt7HVJbZdoVM67S8-7" target="TvTBjt7HVJbZdoVM67S8-13">
          <mxGeometry relative="1" as="geometry">
            <Array as="points">
              <mxPoint x="782" y="636" />
              <mxPoint x="782" y="838" />
            </Array>
          </mxGeometry>
        </mxCell>
        <mxCell id="TvTBjt7HVJbZdoVM67S8-7" value="&lt;div&gt;&lt;br&gt;&lt;/div&gt;&lt;div&gt;entry/Reise Stonieren&lt;/div&gt;" style="rounded=1;whiteSpace=wrap;html=1;" vertex="1" parent="1">
          <mxGeometry x="719.25" y="554" width="163" height="82" as="geometry" />
        </mxCell>
        <mxCell id="TvTBjt7HVJbZdoVM67S8-8" value="" style="endArrow=none;html=1;rounded=0;exitX=0;exitY=0.25;exitDx=0;exitDy=0;entryX=1;entryY=0.25;entryDx=0;entryDy=0;" edge="1" parent="1" source="TvTBjt7HVJbZdoVM67S8-7" target="TvTBjt7HVJbZdoVM67S8-7">
          <mxGeometry width="50" height="50" relative="1" as="geometry">
            <mxPoint x="945.75" y="802" as="sourcePoint" />
            <mxPoint x="995.75" y="752" as="targetPoint" />
          </mxGeometry>
        </mxCell>
        <mxCell id="TvTBjt7HVJbZdoVM67S8-9" value="abgesagt" style="text;html=1;strokeColor=none;fillColor=none;align=center;verticalAlign=middle;whiteSpace=wrap;rounded=0;" vertex="1" parent="1">
          <mxGeometry x="726" y="550" width="149.5" height="30" as="geometry" />
        </mxCell>
        <mxCell id="TvTBjt7HVJbZdoVM67S8-20" style="edgeStyle=orthogonalEdgeStyle;rounded=0;orthogonalLoop=1;jettySize=auto;html=1;" edge="1" parent="1" source="TvTBjt7HVJbZdoVM67S8-10" target="TvTBjt7HVJbZdoVM67S8-13">
          <mxGeometry relative="1" as="geometry" />
        </mxCell>
        <mxCell id="TvTBjt7HVJbZdoVM67S8-10" value="&lt;div&gt;&lt;br&gt;&lt;/div&gt;&lt;div&gt;entry/Fahrzeug zurück nehmen&lt;/div&gt;&lt;div&gt;do/Kilometerstand erfassen&lt;br&gt;&lt;/div&gt;" style="rounded=1;whiteSpace=wrap;html=1;" vertex="1" parent="1">
          <mxGeometry x="406.25" y="676.5" width="163" height="82" as="geometry" />
        </mxCell>
        <mxCell id="TvTBjt7HVJbZdoVM67S8-11" value="" style="endArrow=none;html=1;rounded=0;exitX=0;exitY=0.25;exitDx=0;exitDy=0;entryX=1;entryY=0.25;entryDx=0;entryDy=0;" edge="1" parent="1" source="TvTBjt7HVJbZdoVM67S8-10" target="TvTBjt7HVJbZdoVM67S8-10">
          <mxGeometry width="50" height="50" relative="1" as="geometry">
            <mxPoint x="632.75" y="924.5" as="sourcePoint" />
            <mxPoint x="682.75" y="874.5" as="targetPoint" />
          </mxGeometry>
        </mxCell>
        <mxCell id="TvTBjt7HVJbZdoVM67S8-12" value="abgeschlossen" style="text;html=1;strokeColor=none;fillColor=none;align=center;verticalAlign=middle;whiteSpace=wrap;rounded=0;" vertex="1" parent="1">
          <mxGeometry x="413" y="672.5" width="149.5" height="30" as="geometry" />
        </mxCell>
        <mxCell id="TvTBjt7HVJbZdoVM67S8-19" style="edgeStyle=orthogonalEdgeStyle;rounded=0;orthogonalLoop=1;jettySize=auto;html=1;" edge="1" parent="1" source="TvTBjt7HVJbZdoVM67S8-13" target="TvTBjt7HVJbZdoVM67S8-16">
          <mxGeometry relative="1" as="geometry" />
        </mxCell>
        <mxCell id="TvTBjt7HVJbZdoVM67S8-13" value="&lt;br&gt;entry/Kostenstelle informieren&lt;br&gt;exit/Kosten bezaheln" style="rounded=1;whiteSpace=wrap;html=1;" vertex="1" parent="1">
          <mxGeometry x="406.25" y="796.5" width="163" height="82" as="geometry" />
        </mxCell>
        <mxCell id="TvTBjt7HVJbZdoVM67S8-14" value="" style="endArrow=none;html=1;rounded=0;exitX=0;exitY=0.25;exitDx=0;exitDy=0;entryX=1;entryY=0.25;entryDx=0;entryDy=0;" edge="1" parent="1" source="TvTBjt7HVJbZdoVM67S8-13" target="TvTBjt7HVJbZdoVM67S8-13">
          <mxGeometry width="50" height="50" relative="1" as="geometry">
            <mxPoint x="632.75" y="1044.5" as="sourcePoint" />
            <mxPoint x="682.75" y="994.5" as="targetPoint" />
          </mxGeometry>
        </mxCell>
        <mxCell id="TvTBjt7HVJbZdoVM67S8-15" value="abgerechnet" style="text;html=1;strokeColor=none;fillColor=none;align=center;verticalAlign=middle;whiteSpace=wrap;rounded=0;" vertex="1" parent="1">
          <mxGeometry x="413" y="792.5" width="149.5" height="30" as="geometry" />
        </mxCell>
        <mxCell id="TvTBjt7HVJbZdoVM67S8-16" value="exit/Reservierung archivieren" style="rounded=1;whiteSpace=wrap;html=1;" vertex="1" parent="1">
          <mxGeometry x="406.25" y="916.5" width="163" height="82" as="geometry" />
        </mxCell>
        <mxCell id="TvTBjt7HVJbZdoVM67S8-17" value="" style="endArrow=none;html=1;rounded=0;exitX=0;exitY=0.25;exitDx=0;exitDy=0;entryX=1;entryY=0.25;entryDx=0;entryDy=0;" edge="1" parent="1" source="TvTBjt7HVJbZdoVM67S8-16" target="TvTBjt7HVJbZdoVM67S8-16">
          <mxGeometry width="50" height="50" relative="1" as="geometry">
            <mxPoint x="632.75" y="1164.5" as="sourcePoint" />
            <mxPoint x="682.75" y="1114.5" as="targetPoint" />
          </mxGeometry>
        </mxCell>
        <mxCell id="TvTBjt7HVJbZdoVM67S8-18" value="bezahlt" style="text;html=1;strokeColor=none;fillColor=none;align=center;verticalAlign=middle;whiteSpace=wrap;rounded=0;" vertex="1" parent="1">
          <mxGeometry x="413" y="912.5" width="149.5" height="30" as="geometry" />
        </mxCell>
        <mxCell id="TvTBjt7HVJbZdoVM67S8-30" value="&lt;div&gt;Reiseabbruch&lt;/div&gt;" style="text;html=1;strokeColor=none;fillColor=none;align=center;verticalAlign=middle;whiteSpace=wrap;rounded=0;" vertex="1" parent="1">
          <mxGeometry x="590" y="240" width="150" height="53" as="geometry" />
        </mxCell>
        <mxCell id="TvTBjt7HVJbZdoVM67S8-36" style="edgeStyle=orthogonalEdgeStyle;rounded=0;orthogonalLoop=1;jettySize=auto;html=1;exitX=1;exitY=0.75;exitDx=0;exitDy=0;" edge="1" parent="1" source="TvTBjt7HVJbZdoVM67S8-1" target="TvTBjt7HVJbZdoVM67S8-7">
          <mxGeometry relative="1" as="geometry">
            <Array as="points">
              <mxPoint x="760" y="317" />
            </Array>
          </mxGeometry>
        </mxCell>
        <mxCell id="TvTBjt7HVJbZdoVM67S8-37" style="edgeStyle=orthogonalEdgeStyle;rounded=0;orthogonalLoop=1;jettySize=auto;html=1;" edge="1" parent="1" source="TvTBjt7HVJbZdoVM67S8-32" target="TvTBjt7HVJbZdoVM67S8-4">
          <mxGeometry relative="1" as="geometry" />
        </mxCell>
        <mxCell id="TvTBjt7HVJbZdoVM67S8-32" value="&lt;div&gt;&lt;br&gt;&lt;/div&gt;&lt;div&gt;do/Zeit festlegen&lt;/div&gt;&lt;div&gt;do/Kostenstelle(n) angeben&lt;br&gt;&lt;/div&gt;" style="rounded=1;whiteSpace=wrap;html=1;" vertex="1" parent="1">
          <mxGeometry x="406.25" y="414" width="163" height="82" as="geometry" />
        </mxCell>
        <mxCell id="TvTBjt7HVJbZdoVM67S8-33" value="" style="endArrow=none;html=1;rounded=0;exitX=0;exitY=0.25;exitDx=0;exitDy=0;entryX=1;entryY=0.25;entryDx=0;entryDy=0;" edge="1" parent="1" source="TvTBjt7HVJbZdoVM67S8-32" target="TvTBjt7HVJbZdoVM67S8-32">
          <mxGeometry width="50" height="50" relative="1" as="geometry">
            <mxPoint x="632.75" y="662" as="sourcePoint" />
            <mxPoint x="682.75" y="612" as="targetPoint" />
          </mxGeometry>
        </mxCell>
        <mxCell id="TvTBjt7HVJbZdoVM67S8-34" value="genemigt" style="text;html=1;strokeColor=none;fillColor=none;align=center;verticalAlign=middle;whiteSpace=wrap;rounded=0;" vertex="1" parent="1">
          <mxGeometry x="413" y="410" width="149.5" height="30" as="geometry" />
        </mxCell>
        <mxCell id="TvTBjt7HVJbZdoVM67S8-39" value="Kostenstelle fertig&lt;br&gt;[Antrag Genemigt]" style="text;html=1;strokeColor=none;fillColor=none;align=center;verticalAlign=middle;whiteSpace=wrap;rounded=0;" vertex="1" parent="1">
          <mxGeometry x="352.75" y="350" width="150" height="53" as="geometry" />
        </mxCell>
      </root>
    </mxGraphModel>
  </diagram>
</mxfile>
